<svg width="200" height="250" viewBox="0 0 200 250" fill="none" xmlns="http://www.w3.org/2000/svg">
<path fill-rule="evenodd" clip-rule="evenodd" d="M0.084512 104.149C0.028353 102.773 0 101.39 0 100C0 44.7715 44.7715 0 100 0C155.228 0 200 44.7715 200 100C200 101.39 199.972 102.773 199.915 104.149C199.971 104.759 200 105.376 200 106V230C200 241.046 191.046 250 180 250H20C8.95431 250 0 241.046 0 230V106C0 105.376 0.0285834 104.759 0.084512 104.149ZM148.014 86H51.9865C58.0412 65.1998 77.2455 50 100 50C122.754 50 141.959 65.1998 148.014 86Z" fill="#5688C7"/>
<path d="M143.86 157.198H141.975C140.87 152.369 138.944 147.852 136.351 143.803L137.737 142.416C139.335 140.818 139.335 138.227 137.737 136.629L130.37 129.262C128.772 127.664 126.181 127.664 124.583 129.262L123.144 130.701C119.104 128.156 114.606 126.272 109.801 125.2V123.139C109.801 120.879 107.969 119.047 105.709 119.047H95.2901C93.0299 119.047 91.1982 120.879 91.1982 123.139V125.2C88.6518 125.886 81.8956 128.155 77.856 130.701L76.4171 129.262C74.8191 127.664 72.2281 127.664 70.6302 129.262L63.2627 136.629C61.6647 138.227 61.6647 140.818 63.2627 142.416L64.6499 143.803C62.0561 147.852 60.1302 152.368 59.0249 157.198H57.1401C54.8798 157.198 53.0481 159.03 53.0481 161.29V171.709C53.0481 173.969 54.8798 175.801 57.1401 175.801H58.9272C59.9899 180.691 61.8922 185.266 64.4769 189.369L63.2627 190.582C61.6647 192.18 61.6647 194.771 63.2627 196.369L70.6302 203.737C72.2281 205.335 74.8191 205.335 76.4171 203.737L77.5783 202.575C81.6891 205.208 86.2835 207.152 91.1982 208.248V209.859C91.1982 212.118 93.0306 213.95 95.2901 213.95H105.709C107.969 213.95 109.801 212.119 109.801 209.859V208.248C114.715 207.152 119.31 205.208 123.421 202.575L124.583 203.737C126.181 205.335 128.772 205.335 130.37 203.737L137.737 196.369C139.335 194.771 139.335 192.18 137.737 190.582L136.524 189.369C139.109 185.266 141.011 180.69 142.074 175.801H143.861C146.121 175.801 147.953 173.969 147.953 171.709V161.29C147.952 159.03 146.119 157.198 143.86 157.198ZM100.499 187.773C88.7502 187.773 79.2258 178.249 79.2258 166.5C79.2258 160.21 81.957 154.56 86.2967 150.665L94.6146 146.058C96.4841 145.52 98.4568 145.227 100.499 145.227C112.248 145.227 121.772 154.751 121.772 166.5C121.773 178.248 112.248 187.773 100.499 187.773Z" fill="white"/>
<path d="M143.86 156.151H142.801C141.727 151.841 140.008 147.746 137.679 143.954L138.477 143.156C139.448 142.185 139.982 140.895 139.982 139.523C139.982 138.15 139.447 136.86 138.477 135.889L131.109 128.522C130.139 127.551 128.849 127.016 127.476 127.016C126.103 127.016 124.813 127.551 123.842 128.522L122.988 129.375C119.208 127.092 115.131 125.412 110.848 124.37V123.139C110.848 120.305 108.542 118 105.709 118H95.2894C92.4556 118 90.1508 120.305 90.1508 123.139V124.409C87.2841 125.254 81.7791 127.194 78.0151 129.381L77.1561 128.522C76.1855 127.551 74.8952 127.016 73.5226 127.016C72.15 127.016 70.8598 127.551 69.8891 128.522L62.5216 135.889C61.5509 136.86 61.0164 138.15 61.0164 139.523C61.0164 140.895 61.5516 142.185 62.5216 143.156L63.3192 143.954C60.9906 147.746 59.2712 151.841 58.198 156.151H57.1387C54.3049 156.151 52 158.456 52 161.29V171.71C52 174.544 54.3056 176.849 57.1387 176.849H58.0898C59.1281 181.214 60.8273 185.367 63.1496 189.215L62.5216 189.843C60.5182 191.847 60.5182 195.107 62.5216 197.111L69.8891 204.478C70.8598 205.449 72.15 205.984 73.5226 205.984C74.8952 205.984 76.1855 205.449 77.1561 204.478L77.7276 203.907C81.5837 206.274 85.7552 208.011 90.1508 209.081V209.861C90.1508 212.695 92.4563 215 95.2894 215H105.709C108.543 215 110.848 212.695 110.848 209.861V209.081C115.243 208.011 119.415 206.274 123.271 203.907L123.842 204.478C124.813 205.449 126.103 205.984 127.476 205.984C128.849 205.984 130.139 205.449 131.109 204.478L138.477 197.111C140.48 195.107 140.48 191.847 138.477 189.843L137.849 189.215C140.171 185.367 141.87 181.215 142.909 176.849H143.86C146.694 176.849 148.999 174.544 148.999 171.71V161.289C148.999 158.456 146.693 156.151 143.86 156.151ZM146.905 171.709C146.905 173.388 145.539 174.754 143.86 174.754H142.073C141.58 174.754 141.155 175.098 141.05 175.579C140.028 180.28 138.207 184.732 135.637 188.811C135.377 189.225 135.437 189.764 135.783 190.109L136.996 191.322C138.183 192.51 138.183 194.442 136.996 195.629L129.629 202.996C129.054 203.571 128.289 203.888 127.475 203.888C126.662 203.888 125.897 203.571 125.322 202.996L124.16 201.834C123.812 201.488 123.272 201.428 122.855 201.693C118.773 204.31 114.304 206.171 109.572 207.227C109.094 207.334 108.754 207.758 108.754 208.249V209.859C108.754 211.538 107.387 212.904 105.708 212.904H95.2887C93.6098 212.904 92.2435 211.538 92.2435 209.859V208.249C92.2435 207.758 91.9037 207.334 91.425 207.227C86.6931 206.171 82.2236 204.31 78.1421 201.693C77.9684 201.582 77.7723 201.528 77.5776 201.528C77.3068 201.528 77.0396 201.632 76.8365 201.834L75.6747 202.996C75.0997 203.571 74.3349 203.888 73.5212 203.888C72.7076 203.888 71.9428 203.571 71.3678 202.996L64.0003 195.629C62.8133 194.441 62.8133 192.509 64.0003 191.322L65.2138 190.108C65.5592 189.762 65.6199 189.224 65.3596 188.81C62.7896 184.732 60.969 180.279 59.9467 175.578C59.842 175.097 59.4163 174.754 58.9237 174.754H57.1366C55.4577 174.754 54.0913 173.387 54.0913 171.708V161.289C54.0913 159.611 55.4577 158.244 57.1366 158.244H59.0214C59.5091 158.244 59.9327 157.907 60.0416 157.431C61.105 152.785 62.9508 148.389 65.5271 144.367C65.7929 143.953 65.7336 143.409 65.3861 143.062L63.9996 141.675C63.4246 141.1 63.1078 140.336 63.1078 139.522C63.1078 138.708 63.4246 137.944 63.9996 137.369L71.3671 130.002C71.9421 129.427 72.7069 129.11 73.5205 129.11C74.3342 129.11 75.099 129.427 75.674 130.002L77.1135 131.441C77.4583 131.787 77.9984 131.847 78.4115 131.586C82.3067 129.131 88.8905 126.905 91.4675 126.21C91.9246 126.088 92.2421 125.673 92.2421 125.2V123.139C92.2421 121.46 93.6084 120.093 95.2873 120.093H105.707C107.386 120.093 108.752 121.46 108.752 123.139V125.2C108.752 125.691 109.092 126.115 109.572 126.222C114.192 127.252 118.57 129.057 122.583 131.586C122.997 131.847 123.536 131.787 123.881 131.441L125.32 130.002C125.895 129.427 126.66 129.111 127.474 129.111C128.288 129.111 129.052 129.427 129.627 130.002L136.995 137.37C137.57 137.945 137.887 138.71 137.887 139.523C137.887 140.336 137.57 141.101 136.995 141.676L135.608 143.063C135.261 143.41 135.201 143.953 135.467 144.368C138.044 148.39 139.889 152.785 140.953 157.431C141.062 157.907 141.485 158.245 141.973 158.245H143.858C145.537 158.245 146.903 159.611 146.903 161.29V171.709H146.905ZM100.499 144.179C98.417 144.179 96.3396 144.472 94.3258 145.051C93.7703 145.21 93.4486 145.79 93.6091 146.346C93.7689 146.902 94.3495 147.22 94.9035 147.063C96.729 146.538 98.6117 146.273 100.499 146.273C111.652 146.273 120.726 155.346 120.726 166.499C120.726 177.652 111.652 186.727 100.499 186.727C89.3462 186.727 80.2725 177.653 80.2725 166.5C80.2725 160.767 82.7232 155.279 86.9966 151.444C87.4265 151.058 87.4628 150.397 87.0762 149.966C86.691 149.536 86.0288 149.499 85.5982 149.887C80.8831 154.118 78.1791 160.174 78.1791 166.5C78.1791 178.807 88.192 188.82 100.499 188.82C112.807 188.82 122.819 178.807 122.819 166.5C122.819 154.193 112.807 144.179 100.499 144.179Z" fill="white"/>
<path d="M135.474 144.377C135.206 143.959 135.259 143.414 135.61 143.063L136.912 141.761C137.412 141.261 137.776 140.622 137.864 139.92C137.984 138.962 137.665 138.038 136.997 137.37L129.714 130.087C129.214 129.586 128.574 129.223 127.873 129.135C126.915 129.014 125.991 129.334 125.323 130.002L123.883 131.441C123.534 131.79 122.993 131.844 122.575 131.581C118.63 129.097 114.332 127.316 109.8 126.278V131.472C109.8 132.278 110.31 133.007 111.077 133.251C121.906 136.694 130.44 145.275 133.816 156.131C134.057 156.905 134.79 157.419 135.6 157.419H140.951C139.889 152.782 138.046 148.394 135.474 144.377Z" fill="white"/>
<path d="M135.783 190.109C135.434 189.76 135.38 189.219 135.643 188.802C138.116 184.875 139.886 180.601 140.926 176.094H135.414C134.614 176.094 133.888 176.597 133.639 177.357C130.161 187.977 121.74 196.356 111.079 199.747C110.311 199.991 109.8 200.72 109.8 201.526V207.171C114.442 206.108 118.831 204.271 122.847 201.7C123.265 201.432 123.81 201.484 124.161 201.835L125.239 202.913C125.739 203.412 126.378 203.776 127.08 203.864C128.038 203.984 128.962 203.664 129.629 202.996L136.912 195.714C137.412 195.214 137.776 194.574 137.864 193.872C137.984 192.914 137.664 191.99 136.996 191.322L135.783 190.109Z" fill="white"/>
</svg>
